# xmcd
#
# Track frame offsets: 
#        150
#        14491
#        26100
#        39093
#        55138
#        68729
#        84547
#        97190
#        109972
#        126953
#        143194
#        166788
#        178418
#        196843
#        211148
#        224906
#        235772
#        248053
#
# Disc length: 3594 seconds
#
# Revision: 2
# Processed by: cddbd v1.5.2PL0 Copyright (c) Steve Scherf et al.
# Submitted via: ExactAudioCopyFreeDBPlugin 1.0
#
DISCID=070e0812
DTITLE=Various Artist - Country Music: A Film by Ken Burns [CD 5]
DYEAR=2019
DGENRE=Country
TTITLE0=Ricky Skaggs - Don't Get Above Your Raisin'
TTITLE1=Willie Nelson - On The Road Again
TTITLE2=George Strait - Amarillo By Morning
TTITLE3=Reba McEntire - Somebody Should Leave
TTITLE4=Randy Travis - Diggin' Up Bones
TTITLE5=The Judds (Wynonna and Naomi) - Why Not Me
TTITLE6=Dwight Yoakam - Honky Tonk Man
TTITLE7=Dwight Yoakam and Buck Owens - Streets Of Bakersfield
TTITLE8=Kathy Mattea - Where've You Been
TTITLE9=Keith Whitley - I'm No Stranger To The Rain
TTITLE10=Vince Gill - Go Rest High On That Mountain
TTITLE11=Steve Earle - Guitar Town
TTITLE12=Trisha Yearwood - She's In Love With The Boy
TTITLE13=Rosanne Cash - Tennessee Flat Top Box
TTITLE14=Emmylou Harris and The Nash Ramblers - Get Up John
TTITLE15=Ricky Skaggs - Uncle Pen
TTITLE16=Rosanne Cash - I Still Miss Someone
TTITLE17=The Nitty Gritty Dirt Band - Will The Circle Be Unbroken (198
TTITLE17=9)
EXTD=YEAR: 2019
EXTT0=
EXTT1=
EXTT2=
EXTT3=
EXTT4=
EXTT5=
EXTT6=
EXTT7=
EXTT8=
EXTT9=
EXTT10=
EXTT11=
EXTT12=
EXTT13=
EXTT14=
EXTT15=
EXTT16=
EXTT17=
PLAYORDER=
